<svg width="202" height="202" viewBox="0 0 202 202" fill="none" xmlns="http://www.w3.org/2000/svg">
<rect width="202" height="202" fill="white"/>
<path d="M144.267 49.0575C134.516 49.0575 126.591 56.9918 126.591 66.881V84.7044H91.2369V138.175C91.2369 148.064 83.3112 155.998 73.5604 155.998C68.6565 155.998 64.2659 153.986 61.0726 150.766C57.8794 147.546 55.8835 143.062 55.8835 138.117V84.647H45.6767C35.9259 84.647 28 76.6551 28 66.8234C28 61.8788 29.9956 57.4518 33.1889 54.2321C36.3821 51.0124 40.8298 49 45.6767 49H144.267V49.0575Z" fill="#0D1D36"/>
<path d="M161.943 66.8826V138.177C161.943 148.066 154.017 156 144.266 156H73.5593C83.31 156 91.236 148.066 91.236 138.177V120.353H126.59V66.8826C126.59 56.9934 134.516 49.0591 144.266 49.0591C149.17 49.0591 153.561 51.0714 156.811 54.2912C160.004 57.5109 162 61.938 162 66.8826H161.943Z" fill="#423BED"/>
</svg>
