<svg width="808" height="219" viewBox="0 0 808 219" fill="none" xmlns="http://www.w3.org/2000/svg">
<path d="M507.762 144.21H543.824V161H484.548V144.502L519.88 96.906H484.694V80.116H543.386V96.614L507.762 144.21ZM588.266 162.314C580.48 162.314 573.472 160.611 567.242 157.204C561.013 153.7 556.098 148.785 552.496 142.458C548.992 136.131 547.24 128.831 547.24 120.558C547.24 112.285 549.041 104.985 552.642 98.658C556.341 92.3313 561.354 87.4647 567.68 84.058C574.007 80.554 581.064 78.802 588.85 78.802C596.637 78.802 603.694 80.554 610.02 84.058C616.347 87.4647 621.311 92.3313 624.912 98.658C628.611 104.985 630.46 112.285 630.46 120.558C630.46 128.831 628.562 136.131 624.766 142.458C621.068 148.785 616.006 153.7 609.582 157.204C603.256 160.611 596.15 162.314 588.266 162.314ZM588.266 144.502C591.965 144.502 595.42 143.626 598.632 141.874C601.942 140.025 604.57 137.299 606.516 133.698C608.463 130.097 609.436 125.717 609.436 120.558C609.436 112.869 607.392 106.98 603.304 102.892C599.314 98.7067 594.398 96.614 588.558 96.614C582.718 96.614 577.803 98.7067 573.812 102.892C569.919 106.98 567.972 112.869 567.972 120.558C567.972 128.247 569.87 134.185 573.666 138.37C577.56 142.458 582.426 144.502 588.266 144.502ZM682.976 78.948C692.612 78.948 700.398 82.014 706.336 88.146C712.273 94.1807 715.242 102.649 715.242 113.55V161H694.802V116.324C694.802 109.9 693.196 104.985 689.984 101.578C686.772 98.074 682.392 96.322 676.844 96.322C671.198 96.322 666.721 98.074 663.412 101.578C660.2 104.985 658.594 109.9 658.594 116.324V161H638.154V80.116H658.594V90.19C661.319 86.686 664.774 83.9607 668.96 82.014C673.242 79.97 677.914 78.948 682.976 78.948ZM802.569 118.806C802.569 121.726 802.374 124.354 801.985 126.69H742.855C743.342 132.53 745.386 137.105 748.987 140.414C752.588 143.723 757.017 145.378 762.273 145.378C769.865 145.378 775.267 142.117 778.479 135.596H800.525C798.189 143.383 793.712 149.807 787.093 154.868C780.474 159.832 772.347 162.314 762.711 162.314C754.924 162.314 747.916 160.611 741.687 157.204C735.555 153.7 730.737 148.785 727.233 142.458C723.826 136.131 722.123 128.831 722.123 120.558C722.123 112.187 723.826 104.839 727.233 98.512C730.64 92.1853 735.409 87.3187 741.541 83.912C747.673 80.5053 754.73 78.802 762.711 78.802C770.4 78.802 777.262 80.4567 783.297 83.766C789.429 87.0753 794.15 91.796 797.459 97.928C800.866 103.963 802.569 110.922 802.569 118.806ZM781.399 112.966C781.302 107.71 779.404 103.525 775.705 100.41C772.006 97.198 767.48 95.592 762.127 95.592C757.066 95.592 752.783 97.1493 749.279 100.264C745.872 103.281 743.78 107.515 743.001 112.966H781.399Z" fill="#131313"/>
<path d="M257.424 59.092V75.59H230.268V161H209.828V75.59H182.672V59.092H257.424ZM285.478 92.672C288.106 88.3893 291.512 85.0313 295.698 82.598C299.98 80.1647 304.847 78.948 310.298 78.948V100.41H304.896C298.472 100.41 293.605 101.919 290.296 104.936C287.084 107.953 285.478 113.209 285.478 120.704V161H265.038V80.116H285.478V92.672ZM393.123 80.116V161H372.537V150.78C369.909 154.284 366.454 157.058 362.171 159.102C357.986 161.049 353.411 162.022 348.447 162.022C342.12 162.022 336.524 160.708 331.657 158.08C326.79 155.355 322.946 151.413 320.123 146.254C317.398 140.998 316.035 134.769 316.035 127.566V80.116H336.475V124.646C336.475 131.07 338.081 136.034 341.293 139.538C344.505 142.945 348.885 144.648 354.433 144.648C360.078 144.648 364.507 142.945 367.719 139.538C370.931 136.034 372.537 131.07 372.537 124.646V80.116H393.123ZM481.18 118.806C481.18 121.726 480.986 124.354 480.596 126.69H421.466C421.953 132.53 423.997 137.105 427.598 140.414C431.2 143.723 435.628 145.378 440.884 145.378C448.476 145.378 453.878 142.117 457.09 135.596H479.136C476.8 143.383 472.323 149.807 465.704 154.868C459.086 159.832 450.958 162.314 441.322 162.314C433.536 162.314 426.528 160.611 420.298 157.204C414.166 153.7 409.348 148.785 405.844 142.458C402.438 136.131 400.734 128.831 400.734 120.558C400.734 112.187 402.438 104.839 405.844 98.512C409.251 92.1853 414.02 87.3187 420.152 83.912C426.284 80.5053 433.341 78.802 441.322 78.802C449.012 78.802 455.874 80.4567 461.908 83.766C468.04 87.0753 472.761 91.796 476.07 97.928C479.477 103.963 481.18 110.922 481.18 118.806ZM460.01 112.966C459.913 107.71 458.015 103.525 454.316 100.41C450.618 97.198 446.092 95.592 440.738 95.592C435.677 95.592 431.394 97.1493 427.89 100.264C424.484 103.281 422.391 107.515 421.612 112.966H460.01Z" fill="#131313"/>
<path d="M116.5 90.833H155.333V168.5H77.6665V129.666H116.5V90.833Z" fill="#453DFF"/>
<path d="M0 52V90.8333H38.8333V129.667H77.6667V90.8333H116.5V52H0Z" fill="#453DFF"/>
</svg>
